<svg width="108" height="21" viewBox="0 0 108 21" fill="none" xmlns="http://www.w3.org/2000/svg">
<path fill-rule="evenodd" clip-rule="evenodd" d="M52.456 20.6581V10.9261V1.19408H54.3806H56.3053V4.81503V8.43598L56.901 7.93423C57.8282 7.15343 59.128 6.71868 60.5213 6.72363C62.3415 6.73001 63.2318 7.00953 64.1989 7.87823C65.5588 9.09984 65.6538 9.60383 65.6538 15.6032V20.6581H63.7291H61.8044V15.7763C61.8044 10.3281 61.7512 10.0509 60.617 9.58229C59.806 9.24741 58.5856 9.26959 57.6586 9.63605C57.3072 9.77493 57.047 9.87067 56.8544 10.0288C56.2903 10.4916 56.3053 11.489 56.3053 15.6682V20.6581H54.3806H52.456ZM69.1365 3.35332C69.1365 2.61576 69.3779 2.22089 70.0118 1.92143C70.6863 1.60283 72.0664 1.60889 72.5978 1.93292C73.6927 2.60028 73.6731 4.12215 72.5623 4.71165C72.2206 4.89305 71.6465 5.02212 71.1803 5.02244C70.5175 5.02292 70.2779 4.93166 69.7597 4.48063C69.2777 4.06104 69.1365 3.80577 69.1365 3.35332ZM20.841 10.4076C21.3033 8.49884 23.4745 7.0183 26.2436 6.72379C28.2891 6.50633 30.7436 7.06377 31.9632 8.02293C33.444 9.18726 33.4676 9.28363 33.5862 14.6753C33.6551 17.8035 33.7668 19.6171 33.9086 19.9107C34.028 20.1576 34.1257 20.427 34.1257 20.509C34.1257 20.5919 33.2753 20.6581 32.2083 20.6581H30.291L30.0732 20.0255L29.8556 19.3931L29.3107 19.7921C28.0587 20.709 26.5127 21.0457 24.707 20.7944C23.4602 20.621 22.8412 20.3711 21.9278 19.6731C20.696 18.7318 20.195 17.3272 20.5543 15.8216C21.0982 13.5413 23.5506 12.362 27.7486 12.362H29.7264V11.5485C29.7264 9.92801 28.897 9.17067 27.1235 9.17179C25.8967 9.17243 25.0788 9.58197 24.7569 10.3567L24.5202 10.9261H22.6179H20.7154L20.841 10.4076ZM36.8752 10.8328C36.8752 8.78538 38.689 7.20369 41.5054 6.7951C42.8133 6.60541 43.0283 6.60333 44.3433 6.76894C47.1453 7.12168 49.3218 8.77756 49.3358 10.5671L49.3398 11.0856H47.5103H45.6807L45.5566 10.6469C45.2336 9.50539 43.9938 8.88366 42.4438 9.08596C40.2878 9.36739 39.8106 11.4068 41.7507 12.0488C42.0044 12.1329 43.0498 12.3864 44.0737 12.6123C46.4302 13.1322 47.6696 13.6425 48.4865 14.4296C50.6191 16.4842 49.3105 19.578 45.9197 20.4978C44.3714 20.9179 41.949 20.9646 40.5158 20.602C38.6116 20.1202 37.1668 19.0246 36.6039 17.6358C36.3653 17.0471 36.2358 16.7281 36.3649 16.5552C36.5177 16.3504 37.0328 16.3505 38.1583 16.3505C39.7817 16.3505 39.9914 16.3824 39.9921 16.6297C39.9932 17.0759 40.6637 17.9105 41.2206 18.1586C42.5125 18.7342 44.4447 18.6095 45.2624 17.8979C45.7645 17.4608 45.8761 16.5156 45.4752 16.0952C45.0701 15.6704 43.9159 15.246 42.2443 14.9075C38.4709 14.1431 36.8752 12.932 36.8752 10.8328ZM78.6111 8.35924C79.6709 7.48671 80.4287 7.1445 81.9677 6.8428C83.2538 6.59073 83.4607 6.58674 84.9006 6.78505C86.5028 7.0057 87.7995 7.57989 88.8016 8.51225C90.2887 9.89611 90.9495 11.5054 90.9495 13.7438C90.9495 16.131 90.337 17.6548 88.8034 19.0817C87.3176 20.4643 85.0406 21.0812 82.4606 20.8004C80.8699 20.6272 79.8313 20.2243 78.7606 19.3654C77.062 18.0026 76.284 16.2593 76.2875 13.8235C76.291 11.2974 76.9639 9.71503 78.6111 8.35924ZM97.9226 8.16205C98.3563 7.68231 99.9153 6.95656 100.889 6.78138C101.851 6.60812 103.471 6.73017 104.331 7.04095C105.242 7.37025 106.071 8.12472 106.564 9.07255C106.977 9.86627 106.99 10.0391 107.045 15.2736L107.102 20.6581H105.167H103.231V15.8668C103.231 10.5438 103.173 10.2251 102.096 9.65392C100.865 9.00028 98.7821 9.38765 97.9305 10.4287C97.5633 10.8774 97.5485 11.0856 97.5485 15.7768V20.6581H95.6238H93.6991V13.7978V6.93757H95.5321H97.3651V7.62886C97.3651 8.48943 97.5054 8.6236 97.9226 8.16205ZM69.3198 20.6581V13.7978V6.93757H71.2445H73.1692V13.7978V20.6581H71.2445H69.3198ZM87.1002 13.7978C87.1002 11.4178 86.3541 9.99742 84.8428 9.50044C84.1769 9.28139 82.7134 9.29033 82.2427 9.5164C80.7742 10.2216 80.1341 11.5116 80.1358 13.764C80.1369 15.4951 80.3123 16.2211 80.9156 16.9928C81.4937 17.732 82.1536 18.1147 83.0259 18.2165C85.6871 18.5273 87.1002 16.9947 87.1002 13.7978ZM29.1307 17.4169C29.7097 16.9399 29.7264 16.889 29.7264 15.6013V14.2765L28.2142 14.2835C25.9045 14.2942 24.8115 14.7348 24.3994 15.8218C24.1025 16.6048 24.3223 17.3743 24.9809 17.8566C25.5308 18.2593 25.8976 18.3282 27.16 18.2655C27.9506 18.2262 28.3645 18.048 29.1307 17.4169Z" fill="#E7E7E7"/>
<path d="M0.397949 10.6868V20.4986H2.32263H4.24731V16.5179C4.24731 11.7471 4.35546 11.1664 5.42595 10.194C6.07777 9.60207 6.31222 9.49023 6.90227 9.49023C7.72768 9.49023 8.66582 10.0429 9.15084 10.8147C9.428 11.2557 9.4839 11.9422 9.56309 15.8719L9.65474 20.4188L11.7169 20.464L13.7791 20.5091V15.404V10.2988L15.7496 10.2535L17.7201 10.2082V8.53298V6.8578L15.7496 6.81249L13.7791 6.76718V5.96979C13.7791 4.23989 14.581 3.5872 16.706 3.5872H17.8117V2.2311V0.875H13.6874H9.56309V3.73861V6.60222L8.87571 6.34966C7.99952 6.02787 6.04771 6.03122 5.02635 6.35636L4.24731 6.60429V3.73972V0.875H2.32263H0.397949V10.6868Z" fill="#E7E7E7"/>
</svg>
