<svg width="41" height="40" viewBox="0 0 41 40" fill="none" xmlns="http://www.w3.org/2000/svg">
<rect x="0.102051" width="40.5" height="39.75" rx="19.875" fill="#E7E7E7"/>
<path d="M20.3718 18.5456C20.5026 18.5328 20.6596 18.5328 20.8036 18.5456C23.9177 18.4429 26.3906 15.9387 26.3906 12.8566C26.3906 9.71034 23.7999 7.15479 20.5811 7.15479C17.3755 7.15479 14.7717 9.71034 14.7717 12.8566C14.7848 15.9387 17.2577 18.4429 20.3718 18.5456Z" fill="#333333" stroke="#333333" stroke-width="1.125" stroke-linecap="round" stroke-linejoin="round"/>
<path d="M26.9143 23.2847C30.0807 25.3651 30.0807 28.7554 26.9143 30.8229C23.3161 33.1859 17.415 33.1859 13.8168 30.8229C10.6504 28.7425 10.6504 25.3523 13.8168 23.2847C17.4019 20.9346 23.303 20.9346 26.9143 23.2847Z" fill="#333333" stroke="#333333" stroke-width="1.125" stroke-linecap="round" stroke-linejoin="round"/>
</svg>
