<svg width="584" height="426" viewBox="0 0 584 426" fill="none" xmlns="http://www.w3.org/2000/svg">
<path fill-rule="evenodd" clip-rule="evenodd" d="M218.057 2.89384L217.316 153.116L173.69 153.98V2.89384H218.057Z" fill="url(#paint0_linear_636_1154)"/>
<path fill-rule="evenodd" clip-rule="evenodd" d="M46.2716 26.2413C45.9584 39.0826 46.1423 51.3417 46.679 53.4837L47.6565 57.3786H105.195V2.89384H150.703L149.764 6.39643C149.248 8.32208 148.817 42.2988 148.804 81.8967L148.783 153.894H105.195V96.2962H46.0405V153.894H2.4527V2.89384H46.8401L46.2716 26.2413Z" fill="url(#paint1_linear_636_1154)"/>
<path fill-rule="evenodd" clip-rule="evenodd" d="M338.37 1.39163C367.493 6.11778 387.537 21.5307 394.791 44.7724C396.502 50.2535 397.625 55.0155 397.288 55.3517C396.952 55.6895 387.05 56.0102 375.287 56.0647L353.899 56.1659L351.502 51.214C350.182 48.4913 346.702 44.4314 343.77 42.1945C339.261 38.7557 336.441 38.0209 325.532 37.448C310.96 36.6837 304.548 38.2684 295.401 44.8953C286.013 51.6966 281.094 63.3485 281.138 78.6868C281.211 104.813 295.492 119.907 320.062 119.829C333.923 119.785 341.879 117.332 349.61 110.714C359.437 102.302 358.262 100.966 341.036 100.966H326.248V68.2195L363.219 68.6367C397.291 69.0212 400.181 69.2671 400.062 71.7781C399.991 73.2772 399.814 92.7407 399.673 115.031L399.413 155.56L367.5 154.673L366.701 148.446C365.866 141.948 363.759 141.086 358.938 145.267C350.574 152.52 334.889 156.97 317.623 156.991C277.052 157.039 247.736 135.092 238.054 97.4249C233.431 79.4387 237.731 52.352 247.792 36.0953C252.587 28.3475 264.499 16.8653 273.32 11.4931C289.504 1.63291 315.235 -2.3616 338.37 1.39163ZM151.453 171.225C161.924 177.696 169.99 193.088 170.927 208.379L171.355 215.384L157.71 215.834C145.715 216.23 143.962 215.948 143.234 213.499C138.999 199.235 130.612 195.063 123.4 203.633C118.537 209.414 117.038 218.16 117.945 235.456C118.815 252.056 122.278 258.757 130.337 259.441C134.894 259.828 136.348 259.174 138.61 255.723C140.118 253.421 141.711 248.868 142.149 245.605C142.911 239.918 143.21 239.653 149.367 239.203C152.898 238.947 159.536 238.979 164.115 239.277L172.442 239.82L171.428 247.06C168.558 267.592 160.849 282.018 149.055 288.929C143.091 292.423 140.024 293.132 130.881 293.132C121.694 293.132 118.68 292.429 112.591 288.861C100.384 281.706 93.1978 269.516 89.8533 250.283C82.5197 208.118 97.8755 171.392 124.782 166.742C134.213 165.112 144.306 166.807 151.453 171.225ZM351.692 167.285C382.59 177.813 395.091 232.422 375.038 269.267C357.05 302.317 311.795 301.293 295.466 267.467C282.816 241.261 285.457 201.97 301.202 182.089C313.657 166.364 332.646 160.795 351.692 167.285ZM461.544 168.579C480.38 178.436 491.259 200.519 491.259 228.903C491.259 252.188 484.483 269.925 470.93 282.109C452.494 298.685 427.265 297.384 410.149 278.976C392.18 259.651 388.34 220.925 401.683 193.59C408.183 180.273 412.725 175.133 423.232 169.211C430.67 165.02 432.335 164.696 443.779 165.226C451.734 165.593 458.151 166.804 461.544 168.579ZM57.3631 170.609C68.5793 175.064 77.1746 189.386 77.1746 203.62V208.379H49.3607L48.8681 204.134C48.0411 197.007 36.3947 193.964 33.9851 200.245C32.4436 204.263 35.5069 206.779 49.4199 212.926C66.7185 220.568 71.8158 224.278 75.8292 232.145C78.5915 237.56 78.9822 240.545 78.409 251.863C77.6596 266.606 74.4504 274.822 66.8098 281.544C58.9107 288.493 54.9399 289.896 41.3704 290.53C30.3746 291.043 26.9024 290.594 20.8276 287.868C7.79932 282.021 0.895996 270.176 0.895996 253.673V245.623L15.2955 246.07C27.9711 246.466 29.6403 246.842 29.242 249.226C28.7404 252.211 31.5315 258.328 34.2101 260.116C39.8182 263.862 49.7346 259.23 48.8894 253.261C48.4835 250.387 45.2393 248.103 33.2889 242.278C24.9945 238.234 15.8291 232.549 12.924 229.644C-0.93435 215.784 2.40862 185.313 19.0748 173.601C22.5591 171.152 27.7735 168.569 30.665 167.863C37.2202 166.259 49.6252 167.534 57.3631 170.609ZM215.721 166.348V208.379H240.629V166.348H271.763V290.885H240.629V242.627L232.456 242.359C227.962 242.211 222.532 242.04 220.392 241.978L216.5 241.865L215.642 290.885H184.587V166.348H215.721ZM503.712 290.944V166.348H531.733V256.637H575.427L574.542 290.106L503.712 290.944ZM329.813 198.984C314.233 208.483 312.529 245.256 327.076 258.029C336.205 266.043 343.697 264.285 350.597 252.509C353.888 246.892 354.957 242.739 355.488 233.469C356.368 218.126 354.059 209.925 346.667 202.155C340.004 195.152 337.018 194.59 329.813 198.984ZM436.774 199.451C426.246 204.652 421.216 229.662 427.391 246.093C433.416 262.118 443.659 265.711 452.817 255.012C458.837 247.979 460.129 243.48 460.115 229.589C460.105 216.51 457.618 208.675 451.558 202.615C446.043 197.099 442.896 196.427 436.774 199.451ZM254.384 300.531C266.038 304.076 275.18 316.285 277.172 330.97L278.283 339.142L266.85 339.164C260.562 339.175 253.843 339.608 251.915 340.123C248.954 340.917 248.412 340.45 248.412 337.1C248.412 332.145 244.65 328.246 239.866 328.246C233.952 328.246 231.289 329.907 231.289 333.594V333.616C231.289 334.239 231.289 334.753 231.416 335.232C232.017 337.466 235.416 338.95 254.669 347.352L254.826 347.421C265.822 352.219 275.717 361.055 278.066 368.173C280.909 376.784 279.366 394.746 275.083 402.941C267.289 417.851 257.363 423.205 237.515 423.205C221.973 423.205 215.478 420.98 207.383 412.885C200.69 406.193 198.202 400.137 197.371 388.521L196.614 377.942L227.397 378.838L226.921 382.937C226.371 387.66 232.643 393.627 238.157 393.627C242.824 393.627 248.412 389.357 248.412 385.791C248.412 382.224 243.742 378.944 232.681 374.741C207.634 365.225 198.245 351.638 201.913 330.226C206.31 304.579 227.765 292.437 254.384 300.531ZM397.189 302.375C410.295 308.477 419.15 322.364 421.877 341.088L422.955 348.483H392.256L390.153 342.645C383.382 323.828 366.749 329.373 363.624 351.489C362.359 360.44 363.523 375.143 366.036 381.952C368.048 387.402 373.358 392.07 377.544 392.07C383.752 392.07 387.874 388.242 390.054 380.462L392.034 373.39H407.399C408.15 373.39 408.868 373.389 409.554 373.387L409.574 373.387C417.115 373.374 420.779 373.367 422.101 375.124C423.351 376.785 422.506 380.023 420.862 386.323L420.856 386.345C420.699 386.949 420.534 387.58 420.363 388.241C414.297 411.682 402.285 423.709 382.935 425.706C356.935 428.39 339.069 412.603 333.162 381.725C327.909 354.278 333.364 328.854 348.108 312.062C359.626 298.945 380.834 294.759 397.189 302.375ZM41.7702 309.565C42.88 317.464 46.53 338.573 48.5838 348.984C49.0612 351.398 49.686 353.14 49.9733 352.852C50.2606 352.564 52.3905 340.606 54.7058 326.276L58.9137 300.225H98.8758L98.1902 422.426L72.5045 423.331V395.713C72.5045 380.524 71.9329 368.762 71.2321 369.576C70.5343 370.389 68.3984 379.111 66.4844 388.957C64.5735 398.803 62.2947 410.538 61.419 415.032L59.8304 423.205H38.7328L34.3165 398.297C31.8887 384.598 29.3287 373.39 28.6309 373.39C27.9316 373.39 27.36 384.598 27.36 398.297V423.205H0.895996V300.131L40.5677 301.003L41.7702 309.565ZM141 339.351C141 380.314 142.164 389.686 147.465 391.367C151.629 392.69 156.279 390.811 158.514 386.905C159.897 384.488 160.603 371.497 160.962 341.867L161.462 300.225H190.814L190.805 341.088C190.801 363.564 190.13 386.016 189.317 390.985C187.198 403.925 181.988 413.362 173.885 418.936C167.445 423.366 166.106 423.662 152.067 423.745C130.77 423.869 123.116 419.641 115.762 403.688C112.337 396.258 112.181 394.125 111.693 348.094L111.183 300.225H141V339.351ZM320.454 359.769C320.266 392.517 320.089 420.189 320.065 421.259C320.033 422.66 316.313 423.205 306.789 423.205H293.557V300.225H320.799L320.454 359.769ZM487.694 326.3C498.955 371.114 511.496 421.81 511.496 422.523C511.496 422.898 504.872 423.205 496.777 423.205H482.06L481.006 417.367C479.104 406.831 478.519 406.409 466.134 406.646C465.738 406.654 465.355 406.66 464.986 406.667C459.736 406.761 457.07 406.809 455.43 408.131C453.738 409.495 453.141 412.217 451.928 417.746C451.845 418.125 451.758 418.518 451.669 418.924L450.725 423.205H435.862C422.418 423.205 421.078 422.945 421.848 420.48C422.315 418.983 429.04 392.187 436.791 360.936C444.541 329.685 451.187 303.242 451.563 302.171C452.04 300.802 456.534 300.225 466.692 300.225H481.141L487.694 326.3ZM545.743 300.225V388.957H583.104V423.205H517.723V300.225H545.743ZM465.055 357.867C464.047 360.887 463.052 366.126 462.843 369.512C462.502 374.979 462.864 375.691 466.09 375.879C471.081 376.17 471.639 373.625 469.082 362.202L466.883 352.374L465.055 357.867Z" fill="url(#paint2_linear_636_1154)"/>
<path fill-rule="evenodd" clip-rule="evenodd" d="M464.795 125.397V153.98L421.114 153.116L420.428 2.89384H464.795V57.3786H524.079L523.665 3.6722L567.537 2.80822V153.894H523.949V96.4286L495.017 95.974C479.104 95.7234 465.793 95.809 465.439 96.167C465.083 96.5235 464.795 109.678 464.795 125.397Z" fill="url(#paint3_linear_636_1154)"/>
<defs>
<linearGradient id="paint0_linear_636_1154" x1="292" y1="0" x2="292" y2="426" gradientUnits="userSpaceOnUse">
<stop stop-color="#C96C00"/>
<stop offset="0.526042" stop-color="#FFC078"/>
<stop offset="0.9999" stop-color="#A25700"/>
<stop offset="1" stop-color="#C96C00"/>
</linearGradient>
<linearGradient id="paint1_linear_636_1154" x1="292" y1="0" x2="292" y2="426" gradientUnits="userSpaceOnUse">
<stop stop-color="#C96C00"/>
<stop offset="0.526042" stop-color="#FFC078"/>
<stop offset="0.9999" stop-color="#A25700"/>
<stop offset="1" stop-color="#C96C00"/>
</linearGradient>
<linearGradient id="paint2_linear_636_1154" x1="292" y1="0" x2="292" y2="426" gradientUnits="userSpaceOnUse">
<stop stop-color="#C96C00"/>
<stop offset="0.526042" stop-color="#FFC078"/>
<stop offset="0.9999" stop-color="#A25700"/>
<stop offset="1" stop-color="#C96C00"/>
</linearGradient>
<linearGradient id="paint3_linear_636_1154" x1="292" y1="0" x2="292" y2="426" gradientUnits="userSpaceOnUse">
<stop stop-color="#C96C00"/>
<stop offset="0.526042" stop-color="#FFC078"/>
<stop offset="0.9999" stop-color="#A25700"/>
<stop offset="1" stop-color="#C96C00"/>
</linearGradient>
</defs>
</svg>
