<svg width="210" height="210" viewBox="0 0 210 210" fill="none" xmlns="http://www.w3.org/2000/svg">
<circle cx="105" cy="105" r="105" fill="#C02425"/>
<path d="M118.397 163H98.915V76.4277C98.915 70.4707 100.062 65.4658 102.357 61.4131C104.652 57.3115 107.924 54.2109 112.172 52.1113C116.42 50.0117 121.425 48.9619 127.187 48.9619C129.091 48.9619 130.897 49.084 132.606 49.3281C134.364 49.5723 136.098 49.9141 137.807 50.3535L137.44 65.0752C136.513 64.8311 135.487 64.6602 134.364 64.5625C133.29 64.4648 132.094 64.416 130.775 64.416C128.139 64.416 125.893 64.8799 124.037 65.8076C122.182 66.7354 120.766 68.1025 119.789 69.9092C118.861 71.667 118.397 73.8398 118.397 76.4277V163ZM134.438 83.752V97.668H86.9766V83.752H134.438Z" fill="white"/>
<rect x="97.5" y="48.75" width="19.5" height="113.25" fill="white"/>
<rect x="51" y="48.75" width="19.5" height="113.25" fill="white"/>
<rect x="138" y="48.75" width="19.5" height="40.5" transform="rotate(90 138 48.75)" fill="white"/>
<path d="M107.25 117.75C107.25 101.596 96.8406 88.5 84 88.5C71.1594 88.5 60.75 101.596 60.75 117.75" stroke="white" stroke-width="19.5"/>
<rect x="138" y="83.25" width="19.5" height="40.5" transform="rotate(90 138 83.25)" fill="white"/>
<path d="M139.224 76.5693C139.434 70.978 135.771 66.3016 131.044 66.1242C126.316 65.9468 122.313 70.3356 122.103 75.9268" stroke="#C02425" stroke-width="7.5"/>
<path d="M118.397 163H98.915V76.4277C98.915 70.4707 100.062 65.4658 102.357 61.4131C104.652 57.3115 107.924 54.2109 112.172 52.1113C116.42 50.0117 121.425 48.9619 127.187 48.9619C129.091 48.9619 130.897 49.084 132.606 49.3281C134.364 49.5723 136.098 49.9141 137.807 50.3535L137.44 65.0752C136.513 64.8311 135.487 64.6602 134.364 64.5625C133.29 64.4648 132.094 64.416 130.775 64.416C128.139 64.416 125.893 64.8799 124.037 65.8076C122.182 66.7354 120.766 68.1025 119.789 69.9092C118.861 71.667 118.397 73.8398 118.397 76.4277V163ZM134.438 83.752V97.668H86.9766V83.752H134.438Z" fill="white"/>
<rect x="128.25" y="162" width="19.5" height="40.5" transform="rotate(90 128.25 162)" fill="#C02425"/>
<circle cx="146.25" cy="149.25" r="13.5" fill="white"/>
</svg>
