<svg width="41" height="40" viewBox="0 0 41 40" fill="none" xmlns="http://www.w3.org/2000/svg">
<rect x="0.102539" width="40.5" height="39.75" rx="19.875" fill="black"/>
<path d="M20.3723 18.5455C20.5031 18.5327 20.6601 18.5327 20.8041 18.5455C23.9182 18.4428 26.3911 15.9386 26.3911 12.8565C26.3911 9.71022 23.8004 7.15466 20.5816 7.15466C17.376 7.15466 14.7722 9.71022 14.7722 12.8565C14.7853 15.9386 17.2582 18.4428 20.3723 18.5455Z" fill="#E7E7E7" stroke="black" stroke-width="1.125" stroke-linecap="round" stroke-linejoin="round"/>
<path d="M26.9147 23.2847C30.0812 25.3651 30.0812 28.7554 26.9147 30.8229C23.3166 33.1858 17.4155 33.1858 13.8173 30.8229C10.6509 28.7425 10.6509 25.3522 13.8173 23.2847C17.4024 20.9346 23.3035 20.9346 26.9147 23.2847Z" fill="#E7E7E7" stroke="black" stroke-width="1.125" stroke-linecap="round" stroke-linejoin="round"/>
</svg>
