<svg width="280" height="280" viewBox="0 0 280 280" fill="none" xmlns="http://www.w3.org/2000/svg">
<circle cx="140" cy="140" r="140" fill="#C02425"/>
<path d="M157.863 217H131.887V101.57C131.887 93.6276 133.417 86.9544 136.477 81.5508C139.536 76.082 143.898 71.9479 149.562 69.1484C155.227 66.349 161.9 64.9492 169.582 64.9492C172.121 64.9492 174.53 65.112 176.809 65.4375C179.152 65.763 181.464 66.2188 183.742 66.8047L183.254 86.4336C182.017 86.1081 180.65 85.8802 179.152 85.75C177.72 85.6198 176.125 85.5547 174.367 85.5547C170.852 85.5547 167.857 86.1732 165.383 87.4102C162.909 88.6471 161.021 90.4701 159.719 92.8789C158.482 95.2227 157.863 98.1198 157.863 101.57V217ZM179.25 111.336V129.891H115.969V111.336H179.25Z" fill="white"/>
<rect x="130" y="65" width="26" height="151" fill="white"/>
<rect x="68" y="65" width="26" height="151" fill="white"/>
<rect x="184" y="65" width="26" height="54" transform="rotate(90 184 65)" fill="white"/>
<path d="M143 157C143 135.461 129.121 118 112 118C94.8792 118 81 135.461 81 157" stroke="white" stroke-width="26"/>
<rect x="184" y="111" width="26" height="54" transform="rotate(90 184 111)" fill="white"/>
<path d="M185.632 102.092C185.912 94.6373 181.028 88.4021 174.725 88.1656C168.421 87.929 163.084 93.7807 162.804 101.236" stroke="#C02425" stroke-width="10"/>
<path d="M157.863 217H131.887V101.57C131.887 93.6276 133.417 86.9544 136.477 81.5508C139.536 76.082 143.898 71.9479 149.562 69.1484C155.227 66.349 161.9 64.9492 169.582 64.9492C172.121 64.9492 174.53 65.112 176.809 65.4375C179.152 65.763 181.464 66.2188 183.742 66.8047L183.254 86.4336C182.017 86.1081 180.65 85.8802 179.152 85.75C177.72 85.6198 176.125 85.5547 174.367 85.5547C170.852 85.5547 167.857 86.1732 165.383 87.4102C162.909 88.6471 161.021 90.4701 159.719 92.8789C158.482 95.2227 157.863 98.1198 157.863 101.57V217ZM179.25 111.336V129.891H115.969V111.336H179.25Z" fill="white"/>
<rect x="171" y="216" width="26" height="54" transform="rotate(90 171 216)" fill="#C02425"/>
<circle cx="195" cy="199" r="18" fill="white"/>
</svg>
