<svg width="262" height="85" viewBox="0 0 262 85" fill="none" xmlns="http://www.w3.org/2000/svg">
<path d="M17.5454 2.644L11.9134 18H8.1734L2.5414 2.644H5.8414L10.0654 14.854L14.2674 2.644H17.5454ZM20.954 4.36C20.4114 4.36 19.9567 4.19133 19.59 3.854C19.238 3.502 19.062 3.06933 19.062 2.556C19.062 2.04267 19.238 1.61733 19.59 1.28C19.9567 0.927999 20.4114 0.751999 20.954 0.751999C21.4967 0.751999 21.944 0.927999 22.296 1.28C22.6627 1.61733 22.846 2.04267 22.846 2.556C22.846 3.06933 22.6627 3.502 22.296 3.854C21.944 4.19133 21.4967 4.36 20.954 4.36ZM22.472 5.812V18H19.392V5.812H22.472ZM30.5971 15.162L33.6771 5.812H36.9551L32.4451 18H28.7051L24.2171 5.812H27.5171L30.5971 15.162ZM37.893 11.862C37.893 10.63 38.135 9.53733 38.619 8.584C39.1177 7.63067 39.785 6.89733 40.621 6.384C41.4717 5.87067 42.4177 5.614 43.459 5.614C44.3683 5.614 45.1603 5.79733 45.835 6.164C46.5243 6.53067 47.0743 6.99267 47.485 7.55V5.812H50.587V18H47.485V16.218C47.089 16.79 46.539 17.2667 45.835 17.648C45.1457 18.0147 44.3463 18.198 43.437 18.198C42.4103 18.198 41.4717 17.934 40.621 17.406C39.785 16.878 39.1177 16.1373 38.619 15.184C38.135 14.216 37.893 13.1087 37.893 11.862ZM47.485 11.906C47.485 11.158 47.3383 10.52 47.045 9.992C46.7517 9.44933 46.3557 9.03867 45.857 8.76C45.3583 8.46667 44.823 8.32 44.251 8.32C43.679 8.32 43.151 8.45933 42.667 8.738C42.183 9.01667 41.787 9.42733 41.479 9.97C41.1857 10.498 41.039 11.1287 41.039 11.862C41.039 12.5953 41.1857 13.2407 41.479 13.798C41.787 14.3407 42.183 14.7587 42.667 15.052C43.1657 15.3453 43.6937 15.492 44.251 15.492C44.823 15.492 45.3583 15.3527 45.857 15.074C46.3557 14.7807 46.7517 14.37 47.045 13.842C47.3383 13.2993 47.485 12.654 47.485 11.906ZM58.0453 11.862C58.0453 10.63 58.2873 9.53733 58.7713 8.584C59.27 7.63067 59.9373 6.89733 60.7733 6.384C61.624 5.87067 62.57 5.614 63.6113 5.614C64.5207 5.614 65.3127 5.79733 65.9873 6.164C66.6767 6.53067 67.2267 6.99267 67.6373 7.55V5.812H70.7393V18H67.6373V16.218C67.2413 16.79 66.6913 17.2667 65.9873 17.648C65.298 18.0147 64.4987 18.198 63.5893 18.198C62.5627 18.198 61.624 17.934 60.7733 17.406C59.9373 16.878 59.27 16.1373 58.7713 15.184C58.2873 14.216 58.0453 13.1087 58.0453 11.862ZM67.6373 11.906C67.6373 11.158 67.4907 10.52 67.1973 9.992C66.904 9.44933 66.508 9.03867 66.0093 8.76C65.5107 8.46667 64.9753 8.32 64.4033 8.32C63.8313 8.32 63.3033 8.45933 62.8193 8.738C62.3353 9.01667 61.9393 9.42733 61.6313 9.97C61.338 10.498 61.1913 11.1287 61.1913 11.862C61.1913 12.5953 61.338 13.2407 61.6313 13.798C61.9393 14.3407 62.3353 14.7587 62.8193 15.052C63.318 15.3453 63.846 15.492 64.4033 15.492C64.9753 15.492 65.5107 15.3527 66.0093 15.074C66.508 14.7807 66.904 14.37 67.1973 13.842C67.4907 13.2993 67.6373 12.654 67.6373 11.906ZM94.1257 5.636C95.6217 5.636 96.8243 6.098 97.7337 7.022C98.6577 7.93133 99.1197 9.20733 99.1197 10.85V18H96.0397V11.268C96.0397 10.3147 95.7977 9.58867 95.3137 9.09C94.8297 8.57667 94.1697 8.32 93.3337 8.32C92.4977 8.32 91.8303 8.57667 91.3317 9.09C90.8477 9.58867 90.6057 10.3147 90.6057 11.268V18H87.5257V11.268C87.5257 10.3147 87.2837 9.58867 86.7997 9.09C86.3157 8.57667 85.6557 8.32 84.8197 8.32C83.969 8.32 83.2943 8.57667 82.7957 9.09C82.3117 9.58867 82.0697 10.3147 82.0697 11.268V18H78.9897V5.812H82.0697V7.286C82.4657 6.77267 82.9717 6.36933 83.5877 6.076C84.2183 5.78267 84.9077 5.636 85.6557 5.636C86.609 5.636 87.4597 5.84133 88.2077 6.252C88.9557 6.648 89.535 7.22 89.9457 7.968C90.3417 7.264 90.9137 6.69933 91.6617 6.274C92.4243 5.84867 93.2457 5.636 94.1257 5.636ZM107.454 18.198C106.281 18.198 105.225 17.9413 104.286 17.428C103.348 16.9 102.607 16.1593 102.064 15.206C101.536 14.2527 101.272 13.1527 101.272 11.906C101.272 10.6593 101.544 9.55933 102.086 8.606C102.644 7.65267 103.399 6.91933 104.352 6.406C105.306 5.878 106.369 5.614 107.542 5.614C108.716 5.614 109.779 5.878 110.732 6.406C111.686 6.91933 112.434 7.65267 112.976 8.606C113.534 9.55933 113.812 10.6593 113.812 11.906C113.812 13.1527 113.526 14.2527 112.954 15.206C112.397 16.1593 111.634 16.9 110.666 17.428C109.713 17.9413 108.642 18.198 107.454 18.198ZM107.454 15.514C108.012 15.514 108.532 15.382 109.016 15.118C109.515 14.8393 109.911 14.4287 110.204 13.886C110.498 13.3433 110.644 12.6833 110.644 11.906C110.644 10.7473 110.336 9.86 109.72 9.244C109.119 8.61333 108.378 8.298 107.498 8.298C106.618 8.298 105.878 8.61333 105.276 9.244C104.69 9.86 104.396 10.7473 104.396 11.906C104.396 13.0647 104.682 13.9593 105.254 14.59C105.841 15.206 106.574 15.514 107.454 15.514ZM115.28 11.862C115.28 10.63 115.522 9.53733 116.006 8.584C116.504 7.63067 117.179 6.89733 118.03 6.384C118.88 5.87067 119.826 5.614 120.868 5.614C121.66 5.614 122.415 5.79 123.134 6.142C123.852 6.47933 124.424 6.934 124.85 7.506V1.72H127.974V18H124.85V16.196C124.468 16.7973 123.933 17.2813 123.244 17.648C122.554 18.0147 121.755 18.198 120.846 18.198C119.819 18.198 118.88 17.934 118.03 17.406C117.179 16.878 116.504 16.1373 116.006 15.184C115.522 14.216 115.28 13.1087 115.28 11.862ZM124.872 11.906C124.872 11.158 124.725 10.52 124.432 9.992C124.138 9.44933 123.742 9.03867 123.244 8.76C122.745 8.46667 122.21 8.32 121.638 8.32C121.066 8.32 120.538 8.45933 120.054 8.738C119.57 9.01667 119.174 9.42733 118.866 9.97C118.572 10.498 118.426 11.1287 118.426 11.862C118.426 12.5953 118.572 13.2407 118.866 13.798C119.174 14.3407 119.57 14.7587 120.054 15.052C120.552 15.3453 121.08 15.492 121.638 15.492C122.21 15.492 122.745 15.3527 123.244 15.074C123.742 14.7807 124.138 14.37 124.432 13.842C124.725 13.2993 124.872 12.654 124.872 11.906ZM130.19 11.862C130.19 10.63 130.432 9.53733 130.916 8.584C131.415 7.63067 132.082 6.89733 132.918 6.384C133.769 5.87067 134.715 5.614 135.756 5.614C136.665 5.614 137.457 5.79733 138.132 6.164C138.821 6.53067 139.371 6.99267 139.782 7.55V5.812H142.884V18H139.782V16.218C139.386 16.79 138.836 17.2667 138.132 17.648C137.443 18.0147 136.643 18.198 135.734 18.198C134.707 18.198 133.769 17.934 132.918 17.406C132.082 16.878 131.415 16.1373 130.916 15.184C130.432 14.216 130.19 13.1087 130.19 11.862ZM139.782 11.906C139.782 11.158 139.635 10.52 139.342 9.992C139.049 9.44933 138.653 9.03867 138.154 8.76C137.655 8.46667 137.12 8.32 136.548 8.32C135.976 8.32 135.448 8.45933 134.964 8.738C134.48 9.01667 134.084 9.42733 133.776 9.97C133.483 10.498 133.336 11.1287 133.336 11.862C133.336 12.5953 133.483 13.2407 133.776 13.798C134.084 14.3407 134.48 14.7587 134.964 15.052C135.463 15.3453 135.991 15.492 136.548 15.492C137.12 15.492 137.655 15.3527 138.154 15.074C138.653 14.7807 139.049 14.37 139.342 13.842C139.635 13.2993 139.782 12.654 139.782 11.906ZM150.342 11.906C150.342 10.6447 150.599 9.54467 151.112 8.606C151.626 7.65267 152.337 6.91933 153.246 6.406C154.156 5.878 155.197 5.614 156.37 5.614C157.881 5.614 159.128 5.99533 160.11 6.758C161.108 7.506 161.775 8.562 162.112 9.926H158.79C158.614 9.398 158.314 8.98733 157.888 8.694C157.478 8.386 156.964 8.232 156.348 8.232C155.468 8.232 154.772 8.55467 154.258 9.2C153.745 9.83067 153.488 10.7327 153.488 11.906C153.488 13.0647 153.745 13.9667 154.258 14.612C154.772 15.2427 155.468 15.558 156.348 15.558C157.595 15.558 158.409 15.0007 158.79 13.886H162.112C161.775 15.206 161.108 16.2547 160.11 17.032C159.113 17.8093 157.866 18.198 156.37 18.198C155.197 18.198 154.156 17.9413 153.246 17.428C152.337 16.9 151.626 16.1667 151.112 15.228C150.599 14.2747 150.342 13.1673 150.342 11.906ZM169.781 18.198C168.607 18.198 167.551 17.9413 166.613 17.428C165.674 16.9 164.933 16.1593 164.391 15.206C163.863 14.2527 163.599 13.1527 163.599 11.906C163.599 10.6593 163.87 9.55933 164.413 8.606C164.97 7.65267 165.725 6.91933 166.679 6.406C167.632 5.878 168.695 5.614 169.869 5.614C171.042 5.614 172.105 5.878 173.059 6.406C174.012 6.91933 174.76 7.65267 175.303 8.606C175.86 9.55933 176.139 10.6593 176.139 11.906C176.139 13.1527 175.853 14.2527 175.281 15.206C174.723 16.1593 173.961 16.9 172.993 17.428C172.039 17.9413 170.969 18.198 169.781 18.198ZM169.781 15.514C170.338 15.514 170.859 15.382 171.343 15.118C171.841 14.8393 172.237 14.4287 172.531 13.886C172.824 13.3433 172.971 12.6833 172.971 11.906C172.971 10.7473 172.663 9.86 172.047 9.244C171.445 8.61333 170.705 8.298 169.825 8.298C168.945 8.298 168.204 8.61333 167.603 9.244C167.016 9.86 166.723 10.7473 166.723 11.906C166.723 13.0647 167.009 13.9593 167.581 14.59C168.167 15.206 168.901 15.514 169.781 15.514ZM193.534 5.636C195.03 5.636 196.233 6.098 197.142 7.022C198.066 7.93133 198.528 9.20733 198.528 10.85V18H195.448V11.268C195.448 10.3147 195.206 9.58867 194.722 9.09C194.238 8.57667 193.578 8.32 192.742 8.32C191.906 8.32 191.239 8.57667 190.74 9.09C190.256 9.58867 190.014 10.3147 190.014 11.268V18H186.934V11.268C186.934 10.3147 186.692 9.58867 186.208 9.09C185.724 8.57667 185.064 8.32 184.228 8.32C183.377 8.32 182.703 8.57667 182.204 9.09C181.72 9.58867 181.478 10.3147 181.478 11.268V18H178.398V5.812H181.478V7.286C181.874 6.77267 182.38 6.36933 182.996 6.076C183.627 5.78267 184.316 5.636 185.064 5.636C186.017 5.636 186.868 5.84133 187.616 6.252C188.364 6.648 188.943 7.22 189.354 7.968C189.75 7.264 190.322 6.69933 191.07 6.274C191.833 5.84867 192.654 5.636 193.534 5.636ZM206.863 18.198C205.689 18.198 204.633 17.9413 203.695 17.428C202.756 16.9 202.015 16.1593 201.473 15.206C200.945 14.2527 200.681 13.1527 200.681 11.906C200.681 10.6593 200.952 9.55933 201.495 8.606C202.052 7.65267 202.807 6.91933 203.761 6.406C204.714 5.878 205.777 5.614 206.951 5.614C208.124 5.614 209.187 5.878 210.141 6.406C211.094 6.91933 211.842 7.65267 212.385 8.606C212.942 9.55933 213.221 10.6593 213.221 11.906C213.221 13.1527 212.935 14.2527 212.363 15.206C211.805 16.1593 211.043 16.9 210.075 17.428C209.121 17.9413 208.051 18.198 206.863 18.198ZM206.863 15.514C207.42 15.514 207.941 15.382 208.425 15.118C208.923 14.8393 209.319 14.4287 209.613 13.886C209.906 13.3433 210.053 12.6833 210.053 11.906C210.053 10.7473 209.745 9.86 209.129 9.244C208.527 8.61333 207.787 8.298 206.907 8.298C206.027 8.298 205.286 8.61333 204.685 9.244C204.098 9.86 203.805 10.7473 203.805 11.906C203.805 13.0647 204.091 13.9593 204.663 14.59C205.249 15.206 205.983 15.514 206.863 15.514ZM227.476 5.636C228.928 5.636 230.101 6.098 230.996 7.022C231.891 7.93133 232.338 9.20733 232.338 10.85V18H229.258V11.268C229.258 10.3 229.016 9.55933 228.532 9.046C228.048 8.518 227.388 8.254 226.552 8.254C225.701 8.254 225.027 8.518 224.528 9.046C224.044 9.55933 223.802 10.3 223.802 11.268V18H220.722V5.812H223.802V7.33C224.213 6.802 224.733 6.39133 225.364 6.098C226.009 5.79 226.713 5.636 227.476 5.636ZM240.679 18.198C239.506 18.198 238.45 17.9413 237.511 17.428C236.572 16.9 235.832 16.1593 235.289 15.206C234.761 14.2527 234.497 13.1527 234.497 11.906C234.497 10.6593 234.768 9.55933 235.311 8.606C235.868 7.65267 236.624 6.91933 237.577 6.406C238.53 5.878 239.594 5.614 240.767 5.614C241.94 5.614 243.004 5.878 243.957 6.406C244.91 6.91933 245.658 7.65267 246.201 8.606C246.758 9.55933 247.037 10.6593 247.037 11.906C247.037 13.1527 246.751 14.2527 246.179 15.206C245.622 16.1593 244.859 16.9 243.891 17.428C242.938 17.9413 241.867 18.198 240.679 18.198ZM240.679 15.514C241.236 15.514 241.757 15.382 242.241 15.118C242.74 14.8393 243.136 14.4287 243.429 13.886C243.722 13.3433 243.869 12.6833 243.869 11.906C243.869 10.7473 243.561 9.86 242.945 9.244C242.344 8.61333 241.603 8.298 240.723 8.298C239.843 8.298 239.102 8.61333 238.501 9.244C237.914 9.86 237.621 10.7473 237.621 11.906C237.621 13.0647 237.907 13.9593 238.479 14.59C239.066 15.206 239.799 15.514 240.679 15.514ZM253.96 18.198C252.963 18.198 252.068 18.022 251.276 17.67C250.484 17.3033 249.854 16.812 249.384 16.196C248.93 15.58 248.68 14.898 248.636 14.15H251.738C251.797 14.6193 252.024 15.008 252.42 15.316C252.831 15.624 253.337 15.778 253.938 15.778C254.525 15.778 254.98 15.6607 255.302 15.426C255.64 15.1913 255.808 14.8907 255.808 14.524C255.808 14.128 255.603 13.8347 255.192 13.644C254.796 13.4387 254.158 13.2187 253.278 12.984C252.369 12.764 251.621 12.5367 251.034 12.302C250.462 12.0673 249.964 11.708 249.538 11.224C249.128 10.74 248.922 10.0873 248.922 9.266C248.922 8.59133 249.113 7.97533 249.494 7.418C249.89 6.86067 250.448 6.42067 251.166 6.098C251.9 5.77533 252.758 5.614 253.74 5.614C255.192 5.614 256.351 5.98067 257.216 6.714C258.082 7.43267 258.558 8.408 258.646 9.64H255.698C255.654 9.156 255.449 8.77467 255.082 8.496C254.73 8.20267 254.254 8.056 253.652 8.056C253.095 8.056 252.662 8.15867 252.354 8.364C252.061 8.56933 251.914 8.85533 251.914 9.222C251.914 9.63267 252.12 9.948 252.53 10.168C252.941 10.3733 253.579 10.586 254.444 10.806C255.324 11.026 256.05 11.2533 256.622 11.488C257.194 11.7227 257.686 12.0893 258.096 12.588C258.522 13.072 258.742 13.7173 258.756 14.524C258.756 15.228 258.558 15.8587 258.162 16.416C257.781 16.9733 257.224 17.4133 256.49 17.736C255.772 18.044 254.928 18.198 253.96 18.198ZM7.59521 41.342V47.238C7.59521 47.6487 7.69054 47.9493 7.88121 48.14C8.08654 48.316 8.42388 48.404 8.89321 48.404H10.3232V51H8.38721C5.79121 51 4.49321 49.7387 4.49321 47.216V41.342H3.04121V38.812H4.49321V35.798H7.59521V38.812H10.3232V41.342H7.59521ZM23.8685 44.642C23.8685 45.082 23.8392 45.478 23.7805 45.83H14.8705C14.9438 46.71 15.2518 47.3993 15.7945 47.898C16.3372 48.3967 17.0045 48.646 17.7965 48.646C18.9405 48.646 19.7545 48.1547 20.2385 47.172H23.5605C23.2085 48.3453 22.5338 49.3133 21.5365 50.076C20.5392 50.824 19.3145 51.198 17.8625 51.198C16.6892 51.198 15.6332 50.9413 14.6945 50.428C13.7705 49.9 13.0445 49.1593 12.5165 48.206C12.0032 47.2527 11.7465 46.1527 11.7465 44.906C11.7465 43.6447 12.0032 42.5373 12.5165 41.584C13.0298 40.6307 13.7485 39.8973 14.6725 39.384C15.5965 38.8707 16.6598 38.614 17.8625 38.614C19.0212 38.614 20.0552 38.8633 20.9645 39.362C21.8885 39.8607 22.5998 40.572 23.0985 41.496C23.6118 42.4053 23.8685 43.454 23.8685 44.642ZM20.6785 43.762C20.6638 42.97 20.3778 42.3393 19.8205 41.87C19.2632 41.386 18.5812 41.144 17.7745 41.144C17.0118 41.144 16.3665 41.3787 15.8385 41.848C15.3252 42.3027 15.0098 42.9407 14.8925 43.762H20.6785ZM41.2526 38.636C42.7486 38.636 43.9513 39.098 44.8606 40.022C45.7846 40.9313 46.2466 42.2073 46.2466 43.85V51H43.1666V44.268C43.1666 43.3147 42.9246 42.5887 42.4406 42.09C41.9566 41.5767 41.2966 41.32 40.4606 41.32C39.6246 41.32 38.9573 41.5767 38.4586 42.09C37.9746 42.5887 37.7326 43.3147 37.7326 44.268V51H34.6526V44.268C34.6526 43.3147 34.4106 42.5887 33.9266 42.09C33.4426 41.5767 32.7826 41.32 31.9466 41.32C31.096 41.32 30.4213 41.5767 29.9226 42.09C29.4386 42.5887 29.1966 43.3147 29.1966 44.268V51H26.1166V38.812H29.1966V40.286C29.5926 39.7727 30.0986 39.3693 30.7146 39.076C31.3453 38.7827 32.0346 38.636 32.7826 38.636C33.736 38.636 34.5866 38.8413 35.3346 39.252C36.0826 39.648 36.662 40.22 37.0726 40.968C37.4686 40.264 38.0406 39.6993 38.7886 39.274C39.5513 38.8487 40.3726 38.636 41.2526 38.636ZM52.2494 40.572C52.6454 40.0147 53.188 39.5527 53.8774 39.186C54.5814 38.8047 55.3807 38.614 56.2754 38.614C57.3167 38.614 58.2554 38.8707 59.0914 39.384C59.942 39.8973 60.6094 40.6307 61.0934 41.584C61.592 42.5227 61.8414 43.6153 61.8414 44.862C61.8414 46.1087 61.592 47.216 61.0934 48.184C60.6094 49.1373 59.942 49.878 59.0914 50.406C58.2554 50.934 57.3167 51.198 56.2754 51.198C55.3807 51.198 54.5887 51.0147 53.8994 50.648C53.2247 50.2813 52.6747 49.8193 52.2494 49.262V56.808H49.1694V38.812H52.2494V40.572ZM58.6954 44.862C58.6954 44.1287 58.5414 43.498 58.2334 42.97C57.94 42.4273 57.544 42.0167 57.0454 41.738C56.5614 41.4593 56.0334 41.32 55.4614 41.32C54.904 41.32 54.376 41.4667 53.8774 41.76C53.3934 42.0387 52.9974 42.4493 52.6894 42.992C52.396 43.5347 52.2494 44.1727 52.2494 44.906C52.2494 45.6393 52.396 46.2773 52.6894 46.82C52.9974 47.3627 53.3934 47.7807 53.8774 48.074C54.376 48.3527 54.904 48.492 55.4614 48.492C56.0334 48.492 56.5614 48.3453 57.0454 48.052C57.544 47.7587 57.94 47.3407 58.2334 46.798C58.5414 46.2553 58.6954 45.61 58.6954 44.862ZM69.4915 51.198C68.3182 51.198 67.2622 50.9413 66.3235 50.428C65.3849 49.9 64.6442 49.1593 64.1015 48.206C63.5735 47.2527 63.3095 46.1527 63.3095 44.906C63.3095 43.6593 63.5809 42.5593 64.1235 41.606C64.6809 40.6527 65.4362 39.9193 66.3895 39.406C67.3429 38.878 68.4062 38.614 69.5795 38.614C70.7529 38.614 71.8162 38.878 72.7695 39.406C73.7229 39.9193 74.4709 40.6527 75.0135 41.606C75.5709 42.5593 75.8495 43.6593 75.8495 44.906C75.8495 46.1527 75.5635 47.2527 74.9915 48.206C74.4342 49.1593 73.6715 49.9 72.7035 50.428C71.7502 50.9413 70.6795 51.198 69.4915 51.198ZM69.4915 48.514C70.0489 48.514 70.5695 48.382 71.0535 48.118C71.5522 47.8393 71.9482 47.4287 72.2415 46.886C72.5349 46.3433 72.6815 45.6833 72.6815 44.906C72.6815 43.7473 72.3735 42.86 71.7575 42.244C71.1562 41.6133 70.4155 41.298 69.5355 41.298C68.6555 41.298 67.9149 41.6133 67.3135 42.244C66.7269 42.86 66.4335 43.7473 66.4335 44.906C66.4335 46.0647 66.7195 46.9593 67.2915 47.59C67.8782 48.206 68.6115 48.514 69.4915 48.514ZM82.7728 51.198C81.7755 51.198 80.8808 51.022 80.0888 50.67C79.2968 50.3033 78.6662 49.812 78.1968 49.196C77.7422 48.58 77.4928 47.898 77.4488 47.15H80.5508C80.6095 47.6193 80.8368 48.008 81.2328 48.316C81.6435 48.624 82.1495 48.778 82.7508 48.778C83.3375 48.778 83.7922 48.6607 84.1148 48.426C84.4522 48.1913 84.6208 47.8907 84.6208 47.524C84.6208 47.128 84.4155 46.8347 84.0048 46.644C83.6088 46.4387 82.9708 46.2187 82.0908 45.984C81.1815 45.764 80.4335 45.5367 79.8468 45.302C79.2748 45.0673 78.7762 44.708 78.3508 44.224C77.9402 43.74 77.7348 43.0873 77.7348 42.266C77.7348 41.5913 77.9255 40.9753 78.3068 40.418C78.7028 39.8607 79.2602 39.4207 79.9788 39.098C80.7122 38.7753 81.5702 38.614 82.5528 38.614C84.0048 38.614 85.1635 38.9807 86.0288 39.714C86.8942 40.4327 87.3708 41.408 87.4588 42.64H84.5108C84.4668 42.156 84.2615 41.7747 83.8948 41.496C83.5428 41.2027 83.0662 41.056 82.4648 41.056C81.9075 41.056 81.4748 41.1587 81.1668 41.364C80.8735 41.5693 80.7268 41.8553 80.7268 42.222C80.7268 42.6327 80.9322 42.948 81.3428 43.168C81.7535 43.3733 82.3915 43.586 83.2568 43.806C84.1368 44.026 84.8628 44.2533 85.4348 44.488C86.0068 44.7227 86.4982 45.0893 86.9088 45.588C87.3342 46.072 87.5542 46.7173 87.5688 47.524C87.5688 48.228 87.3708 48.8587 86.9748 49.416C86.5935 49.9733 86.0362 50.4133 85.3028 50.736C84.5842 51.044 83.7408 51.198 82.7728 51.198ZM94.5473 44.862C94.5473 43.63 94.7893 42.5373 95.2733 41.584C95.772 40.6307 96.4466 39.8973 97.2973 39.384C98.148 38.8707 99.094 38.614 100.135 38.614C100.927 38.614 101.683 38.79 102.401 39.142C103.12 39.4793 103.692 39.934 104.117 40.506V34.72H107.241V51H104.117V49.196C103.736 49.7973 103.201 50.2813 102.511 50.648C101.822 51.0147 101.023 51.198 100.113 51.198C99.0866 51.198 98.148 50.934 97.2973 50.406C96.4466 49.878 95.772 49.1373 95.2733 48.184C94.7893 47.216 94.5473 46.1087 94.5473 44.862ZM104.139 44.906C104.139 44.158 103.993 43.52 103.699 42.992C103.406 42.4493 103.01 42.0387 102.511 41.76C102.013 41.4667 101.477 41.32 100.905 41.32C100.333 41.32 99.8053 41.4593 99.3213 41.738C98.8373 42.0167 98.4413 42.4273 98.1333 42.97C97.84 43.498 97.6933 44.1287 97.6933 44.862C97.6933 45.5953 97.84 46.2407 98.1333 46.798C98.4413 47.3407 98.8373 47.7587 99.3213 48.052C99.82 48.3453 100.348 48.492 100.905 48.492C101.477 48.492 102.013 48.3527 102.511 48.074C103.01 47.7807 103.406 47.37 103.699 46.842C103.993 46.2993 104.139 45.654 104.139 44.906ZM121.579 44.642C121.579 45.082 121.55 45.478 121.491 45.83H112.581C112.655 46.71 112.963 47.3993 113.505 47.898C114.048 48.3967 114.715 48.646 115.507 48.646C116.651 48.646 117.465 48.1547 117.949 47.172H121.271C120.919 48.3453 120.245 49.3133 119.247 50.076C118.25 50.824 117.025 51.198 115.573 51.198C114.4 51.198 113.344 50.9413 112.405 50.428C111.481 49.9 110.755 49.1593 110.227 48.206C109.714 47.2527 109.457 46.1527 109.457 44.906C109.457 43.6447 109.714 42.5373 110.227 41.584C110.741 40.6307 111.459 39.8973 112.383 39.384C113.307 38.8707 114.371 38.614 115.573 38.614C116.732 38.614 117.766 38.8633 118.675 39.362C119.599 39.8607 120.311 40.572 120.809 41.496C121.323 42.4053 121.579 43.454 121.579 44.642ZM118.389 43.762C118.375 42.97 118.089 42.3393 117.531 41.87C116.974 41.386 116.292 41.144 115.485 41.144C114.723 41.144 114.077 41.3787 113.549 41.848C113.036 42.3027 112.721 42.9407 112.603 43.762H118.389ZM141.808 35.644V51H138.728V44.466H132.15V51H129.07V35.644H132.15V41.958H138.728V35.644H141.808ZM146.401 37.36C145.859 37.36 145.404 37.1913 145.037 36.854C144.685 36.502 144.509 36.0693 144.509 35.556C144.509 35.0427 144.685 34.6173 145.037 34.28C145.404 33.928 145.859 33.752 146.401 33.752C146.944 33.752 147.391 33.928 147.743 34.28C148.11 34.6173 148.293 35.0427 148.293 35.556C148.293 36.0693 148.11 36.502 147.743 36.854C147.391 37.1913 146.944 37.36 146.401 37.36ZM147.919 38.812V51H144.839V38.812H147.919ZM155.736 38.614C156.646 38.614 157.445 38.7973 158.134 39.164C158.824 39.516 159.366 39.978 159.762 40.55V38.812H162.864V51.088C162.864 52.2173 162.637 53.222 162.182 54.102C161.728 54.9967 161.046 55.7007 160.136 56.214C159.227 56.742 158.127 57.006 156.836 57.006C155.106 57.006 153.683 56.6027 152.568 55.796C151.468 54.9893 150.845 53.8893 150.698 52.496H153.756C153.918 53.0533 154.262 53.4933 154.79 53.816C155.333 54.1533 155.986 54.322 156.748 54.322C157.643 54.322 158.369 54.0507 158.926 53.508C159.484 52.98 159.762 52.1733 159.762 51.088V49.196C159.366 49.768 158.816 50.2447 158.112 50.626C157.423 51.0073 156.631 51.198 155.736 51.198C154.71 51.198 153.771 50.934 152.92 50.406C152.07 49.878 151.395 49.1373 150.896 48.184C150.412 47.216 150.17 46.1087 150.17 44.862C150.17 43.63 150.412 42.5373 150.896 41.584C151.395 40.6307 152.062 39.8973 152.898 39.384C153.749 38.8707 154.695 38.614 155.736 38.614ZM159.762 44.906C159.762 44.158 159.616 43.52 159.322 42.992C159.029 42.4493 158.633 42.0387 158.134 41.76C157.636 41.4667 157.1 41.32 156.528 41.32C155.956 41.32 155.428 41.4593 154.944 41.738C154.46 42.0167 154.064 42.4273 153.756 42.97C153.463 43.498 153.316 44.1287 153.316 44.862C153.316 45.5953 153.463 46.2407 153.756 46.798C154.064 47.3407 154.46 47.7587 154.944 48.052C155.443 48.3453 155.971 48.492 156.528 48.492C157.1 48.492 157.636 48.3527 158.134 48.074C158.633 47.7807 159.029 47.37 159.322 46.842C159.616 46.2993 159.762 45.654 159.762 44.906ZM172.736 38.636C173.66 38.636 174.482 38.8413 175.2 39.252C175.919 39.648 176.476 40.242 176.872 41.034C177.283 41.8113 177.488 42.75 177.488 43.85V51H174.408V44.268C174.408 43.3 174.166 42.5593 173.682 42.046C173.198 41.518 172.538 41.254 171.702 41.254C170.852 41.254 170.177 41.518 169.678 42.046C169.194 42.5593 168.952 43.3 168.952 44.268V51H165.872V34.72H168.952V40.33C169.348 39.802 169.876 39.3913 170.536 39.098C171.196 38.79 171.93 38.636 172.736 38.636ZM190.962 51.154C189.891 51.154 188.923 50.9707 188.058 50.604C187.207 50.2373 186.532 49.7093 186.034 49.02C185.535 48.3307 185.278 47.5167 185.264 46.578H188.564C188.608 47.2087 188.828 47.7073 189.224 48.074C189.634 48.4407 190.192 48.624 190.896 48.624C191.614 48.624 192.179 48.4553 192.59 48.118C193 47.766 193.206 47.3113 193.206 46.754C193.206 46.2993 193.066 45.9253 192.788 45.632C192.509 45.3387 192.157 45.1113 191.732 44.95C191.321 44.774 190.749 44.5833 190.016 44.378C189.018 44.0847 188.204 43.7987 187.574 43.52C186.958 43.2267 186.422 42.794 185.968 42.222C185.528 41.6353 185.308 40.858 185.308 39.89C185.308 38.9807 185.535 38.1887 185.99 37.514C186.444 36.8393 187.082 36.326 187.904 35.974C188.725 35.6073 189.664 35.424 190.72 35.424C192.304 35.424 193.587 35.8127 194.57 36.59C195.567 37.3527 196.117 38.4233 196.22 39.802H192.832C192.802 39.274 192.575 38.8413 192.15 38.504C191.739 38.152 191.189 37.976 190.5 37.976C189.898 37.976 189.414 38.13 189.048 38.438C188.696 38.746 188.52 39.1933 188.52 39.78C188.52 40.1907 188.652 40.5353 188.916 40.814C189.194 41.078 189.532 41.298 189.928 41.474C190.338 41.6353 190.91 41.826 191.644 42.046C192.641 42.3393 193.455 42.6327 194.086 42.926C194.716 43.2193 195.259 43.6593 195.714 44.246C196.168 44.8327 196.396 45.6027 196.396 46.556C196.396 47.3773 196.183 48.14 195.758 48.844C195.332 49.548 194.709 50.1127 193.888 50.538C193.066 50.9487 192.091 51.154 190.962 51.154ZM198.274 44.906C198.274 43.6447 198.531 42.5447 199.044 41.606C199.557 40.6527 200.269 39.9193 201.178 39.406C202.087 38.878 203.129 38.614 204.302 38.614C205.813 38.614 207.059 38.9953 208.042 39.758C209.039 40.506 209.707 41.562 210.044 42.926H206.722C206.546 42.398 206.245 41.9873 205.82 41.694C205.409 41.386 204.896 41.232 204.28 41.232C203.4 41.232 202.703 41.5547 202.19 42.2C201.677 42.8307 201.42 43.7327 201.42 44.906C201.42 46.0647 201.677 46.9667 202.19 47.612C202.703 48.2427 203.4 48.558 204.28 48.558C205.527 48.558 206.341 48.0007 206.722 46.886H210.044C209.707 48.206 209.039 49.2547 208.042 50.032C207.045 50.8093 205.798 51.198 204.302 51.198C203.129 51.198 202.087 50.9413 201.178 50.428C200.269 49.9 199.557 49.1667 199.044 48.228C198.531 47.2747 198.274 46.1673 198.274 44.906ZM219.164 38.636C220.088 38.636 220.91 38.8413 221.628 39.252C222.347 39.648 222.904 40.242 223.3 41.034C223.711 41.8113 223.916 42.75 223.916 43.85V51H220.836V44.268C220.836 43.3 220.594 42.5593 220.11 42.046C219.626 41.518 218.966 41.254 218.13 41.254C217.28 41.254 216.605 41.518 216.106 42.046C215.622 42.5593 215.38 43.3 215.38 44.268V51H212.3V34.72H215.38V40.33C215.776 39.802 216.304 39.3913 216.964 39.098C217.624 38.79 218.358 38.636 219.164 38.636ZM232.257 51.198C231.084 51.198 230.028 50.9413 229.089 50.428C228.15 49.9 227.41 49.1593 226.867 48.206C226.339 47.2527 226.075 46.1527 226.075 44.906C226.075 43.6593 226.346 42.5593 226.889 41.606C227.446 40.6527 228.202 39.9193 229.155 39.406C230.108 38.878 231.172 38.614 232.345 38.614C233.518 38.614 234.582 38.878 235.535 39.406C236.488 39.9193 237.236 40.6527 237.779 41.606C238.336 42.5593 238.615 43.6593 238.615 44.906C238.615 46.1527 238.329 47.2527 237.757 48.206C237.2 49.1593 236.437 49.9 235.469 50.428C234.516 50.9413 233.445 51.198 232.257 51.198ZM232.257 48.514C232.814 48.514 233.335 48.382 233.819 48.118C234.318 47.8393 234.714 47.4287 235.007 46.886C235.3 46.3433 235.447 45.6833 235.447 44.906C235.447 43.7473 235.139 42.86 234.523 42.244C233.922 41.6133 233.181 41.298 232.301 41.298C231.421 41.298 230.68 41.6133 230.079 42.244C229.492 42.86 229.199 43.7473 229.199 44.906C229.199 46.0647 229.485 46.9593 230.057 47.59C230.644 48.206 231.377 48.514 232.257 48.514ZM246.286 51.198C245.113 51.198 244.057 50.9413 243.118 50.428C242.18 49.9 241.439 49.1593 240.896 48.206C240.368 47.2527 240.104 46.1527 240.104 44.906C240.104 43.6593 240.376 42.5593 240.918 41.606C241.476 40.6527 242.231 39.9193 243.184 39.406C244.138 38.878 245.201 38.614 246.374 38.614C247.548 38.614 248.611 38.878 249.564 39.406C250.518 39.9193 251.266 40.6527 251.808 41.606C252.366 42.5593 252.644 43.6593 252.644 44.906C252.644 46.1527 252.358 47.2527 251.786 48.206C251.229 49.1593 250.466 49.9 249.498 50.428C248.545 50.9413 247.474 51.198 246.286 51.198ZM246.286 48.514C246.844 48.514 247.364 48.382 247.848 48.118C248.347 47.8393 248.743 47.4287 249.036 46.886C249.33 46.3433 249.476 45.6833 249.476 44.906C249.476 43.7473 249.168 42.86 248.552 42.244C247.951 41.6133 247.21 41.298 246.33 41.298C245.45 41.298 244.71 41.6133 244.108 42.244C243.522 42.86 243.228 43.7473 243.228 44.906C243.228 46.0647 243.514 46.9593 244.086 47.59C244.673 48.206 245.406 48.514 246.286 48.514ZM257.984 34.72V51H254.904V34.72H257.984ZM16.7659 68.644V84H13.6859V74.012L9.57186 84H7.23986L3.10386 74.012V84H0.0238595V68.644H3.52186L8.40586 80.062L13.2899 68.644H16.7659ZM31.317 71.812V84H28.215V82.46C27.819 82.988 27.2983 83.406 26.653 83.714C26.0223 84.0073 25.333 84.154 24.585 84.154C23.6316 84.154 22.7883 83.956 22.055 83.56C21.3216 83.1493 20.7423 82.5553 20.317 81.778C19.9063 80.986 19.701 80.0473 19.701 78.962V71.812H22.781V78.522C22.781 79.49 23.023 80.238 23.507 80.766C23.991 81.2793 24.651 81.536 25.487 81.536C26.3376 81.536 27.005 81.2793 27.489 80.766C27.973 80.238 28.215 79.49 28.215 78.522V71.812H31.317ZM39.0199 84.198C38.0226 84.198 37.1279 84.022 36.3359 83.67C35.5439 83.3033 34.9132 82.812 34.4439 82.196C33.9892 81.58 33.7399 80.898 33.6959 80.15H36.7979C36.8566 80.6193 37.0839 81.008 37.4799 81.316C37.8906 81.624 38.3966 81.778 38.9979 81.778C39.5846 81.778 40.0392 81.6607 40.3619 81.426C40.6992 81.1913 40.8679 80.8907 40.8679 80.524C40.8679 80.128 40.6626 79.8347 40.2519 79.644C39.8559 79.4387 39.2179 79.2187 38.3379 78.984C37.4286 78.764 36.6806 78.5367 36.0939 78.302C35.5219 78.0673 35.0232 77.708 34.5979 77.224C34.1872 76.74 33.9819 76.0873 33.9819 75.266C33.9819 74.5913 34.1726 73.9753 34.5539 73.418C34.9499 72.8607 35.5072 72.4207 36.2259 72.098C36.9592 71.7753 37.8172 71.614 38.7999 71.614C40.2519 71.614 41.4106 71.9807 42.2759 72.714C43.1412 73.4327 43.6179 74.408 43.7059 75.64H40.7579C40.7139 75.156 40.5086 74.7747 40.1419 74.496C39.7899 74.2027 39.3132 74.056 38.7119 74.056C38.1546 74.056 37.7219 74.1587 37.4139 74.364C37.1206 74.5693 36.9739 74.8553 36.9739 75.222C36.9739 75.6327 37.1792 75.948 37.5899 76.168C38.0006 76.3733 38.6386 76.586 39.5039 76.806C40.3839 77.026 41.1099 77.2533 41.6819 77.488C42.2539 77.7227 42.7452 78.0893 43.1559 78.588C43.5812 79.072 43.8012 79.7173 43.8159 80.524C43.8159 81.228 43.6179 81.8587 43.2219 82.416C42.8406 82.9733 42.2832 83.4133 41.5499 83.736C40.8312 84.044 39.9879 84.198 39.0199 84.198ZM47.9062 70.36C47.3635 70.36 46.9088 70.1913 46.5422 69.854C46.1902 69.502 46.0142 69.0693 46.0142 68.556C46.0142 68.0427 46.1902 67.6173 46.5422 67.28C46.9088 66.928 47.3635 66.752 47.9062 66.752C48.4488 66.752 48.8962 66.928 49.2482 67.28C49.6148 67.6173 49.7982 68.0427 49.7982 68.556C49.7982 69.0693 49.6148 69.502 49.2482 69.854C48.8962 70.1913 48.4488 70.36 47.9062 70.36ZM49.4242 71.812V84H46.3442V71.812H49.4242ZM51.6752 77.906C51.6752 76.6447 51.9319 75.5447 52.4452 74.606C52.9586 73.6527 53.6699 72.9193 54.5792 72.406C55.4886 71.878 56.5299 71.614 57.7032 71.614C59.2139 71.614 60.4606 71.9953 61.4432 72.758C62.4406 73.506 63.1079 74.562 63.4452 75.926H60.1232C59.9472 75.398 59.6466 74.9873 59.2212 74.694C58.8106 74.386 58.2972 74.232 57.6812 74.232C56.8012 74.232 56.1046 74.5547 55.5912 75.2C55.0779 75.8307 54.8212 76.7327 54.8212 77.906C54.8212 79.0647 55.0779 79.9667 55.5912 80.612C56.1046 81.2427 56.8012 81.558 57.6812 81.558C58.9279 81.558 59.7419 81.0007 60.1232 79.886H63.4452C63.1079 81.206 62.4406 82.2547 61.4432 83.032C60.4459 83.8093 59.1992 84.198 57.7032 84.198C56.5299 84.198 55.4886 83.9413 54.5792 83.428C53.6699 82.9 52.9586 82.1667 52.4452 81.228C51.9319 80.2747 51.6752 79.1673 51.6752 77.906ZM64.9096 77.862C64.9096 76.63 65.1516 75.5373 65.6356 74.584C66.1343 73.6307 66.8016 72.8973 67.6376 72.384C68.4883 71.8707 69.4343 71.614 70.4756 71.614C71.3849 71.614 72.1769 71.7973 72.8516 72.164C73.5409 72.5307 74.0909 72.9927 74.5016 73.55V71.812H77.6036V84H74.5016V82.218C74.1056 82.79 73.5556 83.2667 72.8516 83.648C72.1623 84.0147 71.3629 84.198 70.4536 84.198C69.4269 84.198 68.4883 83.934 67.6376 83.406C66.8016 82.878 66.1343 82.1373 65.6356 81.184C65.1516 80.216 64.9096 79.1087 64.9096 77.862ZM74.5016 77.906C74.5016 77.158 74.3549 76.52 74.0616 75.992C73.7683 75.4493 73.3723 75.0387 72.8736 74.76C72.3749 74.4667 71.8396 74.32 71.2676 74.32C70.6956 74.32 70.1676 74.4593 69.6836 74.738C69.1996 75.0167 68.8036 75.4273 68.4956 75.97C68.2023 76.498 68.0556 77.1287 68.0556 77.862C68.0556 78.5953 68.2023 79.2407 68.4956 79.798C68.8036 80.3407 69.1996 80.7587 69.6836 81.052C70.1823 81.3453 70.7103 81.492 71.2676 81.492C71.8396 81.492 72.3749 81.3527 72.8736 81.074C73.3723 80.7807 73.7683 80.37 74.0616 79.842C74.3549 79.2993 74.5016 78.654 74.5016 77.906ZM83.6918 67.72V84H80.6118V67.72H83.6918ZM91.185 77.906C91.185 76.6447 91.4417 75.5447 91.955 74.606C92.4683 73.6527 93.1797 72.9193 94.089 72.406C94.9983 71.878 96.0397 71.614 97.213 71.614C98.7237 71.614 99.9703 71.9953 100.953 72.758C101.95 73.506 102.618 74.562 102.955 75.926H99.633C99.457 75.398 99.1563 74.9873 98.731 74.694C98.3203 74.386 97.807 74.232 97.191 74.232C96.311 74.232 95.6143 74.5547 95.101 75.2C94.5877 75.8307 94.331 76.7327 94.331 77.906C94.331 79.0647 94.5877 79.9667 95.101 80.612C95.6143 81.2427 96.311 81.558 97.191 81.558C98.4377 81.558 99.2517 81.0007 99.633 79.886H102.955C102.618 81.206 101.95 82.2547 100.953 83.032C99.9557 83.8093 98.709 84.198 97.213 84.198C96.0397 84.198 94.9983 83.9413 94.089 83.428C93.1797 82.9 92.4683 82.1667 91.955 81.228C91.4417 80.2747 91.185 79.1673 91.185 77.906ZM110.623 84.198C109.45 84.198 108.394 83.9413 107.455 83.428C106.517 82.9 105.776 82.1593 105.233 81.206C104.705 80.2527 104.441 79.1527 104.441 77.906C104.441 76.6593 104.713 75.5593 105.255 74.606C105.813 73.6527 106.568 72.9193 107.521 72.406C108.475 71.878 109.538 71.614 110.711 71.614C111.885 71.614 112.948 71.878 113.901 72.406C114.855 72.9193 115.603 73.6527 116.145 74.606C116.703 75.5593 116.981 76.6593 116.981 77.906C116.981 79.1527 116.695 80.2527 116.123 81.206C115.566 82.1593 114.803 82.9 113.835 83.428C112.882 83.9413 111.811 84.198 110.623 84.198ZM110.623 81.514C111.181 81.514 111.701 81.382 112.185 81.118C112.684 80.8393 113.08 80.4287 113.373 79.886C113.667 79.3433 113.813 78.6833 113.813 77.906C113.813 76.7473 113.505 75.86 112.889 75.244C112.288 74.6133 111.547 74.298 110.667 74.298C109.787 74.298 109.047 74.6133 108.445 75.244C107.859 75.86 107.565 76.7473 107.565 77.906C107.565 79.0647 107.851 79.9593 108.423 80.59C109.01 81.206 109.743 81.514 110.623 81.514ZM134.377 71.636C135.873 71.636 137.075 72.098 137.985 73.022C138.909 73.9313 139.371 75.2073 139.371 76.85V84H136.291V77.268C136.291 76.3147 136.049 75.5887 135.565 75.09C135.081 74.5767 134.421 74.32 133.585 74.32C132.749 74.32 132.081 74.5767 131.583 75.09C131.099 75.5887 130.857 76.3147 130.857 77.268V84H127.777V77.268C127.777 76.3147 127.535 75.5887 127.051 75.09C126.567 74.5767 125.907 74.32 125.071 74.32C124.22 74.32 123.545 74.5767 123.047 75.09C122.563 75.5887 122.321 76.3147 122.321 77.268V84H119.241V71.812H122.321V73.286C122.717 72.7727 123.223 72.3693 123.839 72.076C124.469 71.7827 125.159 71.636 125.907 71.636C126.86 71.636 127.711 71.8413 128.459 72.252C129.207 72.648 129.786 73.22 130.197 73.968C130.593 73.264 131.165 72.6993 131.913 72.274C132.675 71.8487 133.497 71.636 134.377 71.636ZM160.274 68.644V84H157.194V77.466H150.616V84H147.536V68.644H150.616V74.958H157.194V68.644H160.274ZM164.867 70.36C164.324 70.36 163.87 70.1913 163.503 69.854C163.151 69.502 162.975 69.0693 162.975 68.556C162.975 68.0427 163.151 67.6173 163.503 67.28C163.87 66.928 164.324 66.752 164.867 66.752C165.41 66.752 165.857 66.928 166.209 67.28C166.576 67.6173 166.759 68.0427 166.759 68.556C166.759 69.0693 166.576 69.502 166.209 69.854C165.857 70.1913 165.41 70.36 164.867 70.36ZM166.385 71.812V84H163.305V71.812H166.385ZM178.91 68.644V71.13H172.508V75.068H177.414V77.51H172.508V84H169.428V68.644H178.91ZM180.302 77.862C180.302 76.63 180.544 75.5373 181.028 74.584C181.527 73.6307 182.194 72.8973 183.03 72.384C183.881 71.8707 184.827 71.614 185.868 71.614C186.778 71.614 187.57 71.7973 188.244 72.164C188.934 72.5307 189.484 72.9927 189.894 73.55V71.812H192.996V84H189.894V82.218C189.498 82.79 188.948 83.2667 188.244 83.648C187.555 84.0147 186.756 84.198 185.846 84.198C184.82 84.198 183.881 83.934 183.03 83.406C182.194 82.878 181.527 82.1373 181.028 81.184C180.544 80.216 180.302 79.1087 180.302 77.862ZM189.894 77.906C189.894 77.158 189.748 76.52 189.454 75.992C189.161 75.4493 188.765 75.0387 188.266 74.76C187.768 74.4667 187.232 74.32 186.66 74.32C186.088 74.32 185.56 74.4593 185.076 74.738C184.592 75.0167 184.196 75.4273 183.888 75.97C183.595 76.498 183.448 77.1287 183.448 77.862C183.448 78.5953 183.595 79.2407 183.888 79.798C184.196 80.3407 184.592 80.7587 185.076 81.052C185.575 81.3453 186.103 81.492 186.66 81.492C187.232 81.492 187.768 81.3527 188.266 81.074C188.765 80.7807 189.161 80.37 189.454 79.842C189.748 79.2993 189.894 78.654 189.894 77.906ZM200.668 84.198C199.671 84.198 198.776 84.022 197.984 83.67C197.192 83.3033 196.562 82.812 196.092 82.196C195.638 81.58 195.388 80.898 195.344 80.15H198.446C198.505 80.6193 198.732 81.008 199.128 81.316C199.539 81.624 200.045 81.778 200.646 81.778C201.233 81.778 201.688 81.6607 202.01 81.426C202.348 81.1913 202.516 80.8907 202.516 80.524C202.516 80.128 202.311 79.8347 201.9 79.644C201.504 79.4387 200.866 79.2187 199.986 78.984C199.077 78.764 198.329 78.5367 197.742 78.302C197.17 78.0673 196.672 77.708 196.246 77.224C195.836 76.74 195.63 76.0873 195.63 75.266C195.63 74.5913 195.821 73.9753 196.202 73.418C196.598 72.8607 197.156 72.4207 197.874 72.098C198.608 71.7753 199.466 71.614 200.448 71.614C201.9 71.614 203.059 71.9807 203.924 72.714C204.79 73.4327 205.266 74.408 205.354 75.64H202.406C202.362 75.156 202.157 74.7747 201.79 74.496C201.438 74.2027 200.962 74.056 200.36 74.056C199.803 74.056 199.37 74.1587 199.062 74.364C198.769 74.5693 198.622 74.8553 198.622 75.222C198.622 75.6327 198.828 75.948 199.238 76.168C199.649 76.3733 200.287 76.586 201.152 76.806C202.032 77.026 202.758 77.2533 203.33 77.488C203.902 77.7227 204.394 78.0893 204.804 78.588C205.23 79.072 205.45 79.7173 205.464 80.524C205.464 81.228 205.266 81.8587 204.87 82.416C204.489 82.9733 203.932 83.4133 203.198 83.736C202.48 84.044 201.636 84.198 200.668 84.198ZM214.857 71.636C215.781 71.636 216.602 71.8413 217.321 72.252C218.039 72.648 218.597 73.242 218.993 74.034C219.403 74.8113 219.609 75.75 219.609 76.85V84H216.529V77.268C216.529 76.3 216.287 75.5593 215.803 75.046C215.319 74.518 214.659 74.254 213.823 74.254C212.972 74.254 212.297 74.518 211.799 75.046C211.315 75.5593 211.073 76.3 211.073 77.268V84H207.993V67.72H211.073V73.33C211.469 72.802 211.997 72.3913 212.657 72.098C213.317 71.79 214.05 71.636 214.857 71.636ZM224.1 70.36C223.557 70.36 223.102 70.1913 222.736 69.854C222.384 69.502 222.208 69.0693 222.208 68.556C222.208 68.0427 222.384 67.6173 222.736 67.28C223.102 66.928 223.557 66.752 224.1 66.752C224.642 66.752 225.09 66.928 225.442 67.28C225.808 67.6173 225.992 68.0427 225.992 68.556C225.992 69.0693 225.808 69.502 225.442 69.854C225.09 70.1913 224.642 70.36 224.1 70.36ZM225.618 71.812V84H222.538V71.812H225.618ZM234.073 84.198C232.899 84.198 231.843 83.9413 230.905 83.428C229.966 82.9 229.225 82.1593 228.683 81.206C228.155 80.2527 227.891 79.1527 227.891 77.906C227.891 76.6593 228.162 75.5593 228.705 74.606C229.262 73.6527 230.017 72.9193 230.971 72.406C231.924 71.878 232.987 71.614 234.161 71.614C235.334 71.614 236.397 71.878 237.351 72.406C238.304 72.9193 239.052 73.6527 239.595 74.606C240.152 75.5593 240.431 76.6593 240.431 77.906C240.431 79.1527 240.145 80.2527 239.573 81.206C239.015 82.1593 238.253 82.9 237.285 83.428C236.331 83.9413 235.261 84.198 234.073 84.198ZM234.073 81.514C234.63 81.514 235.151 81.382 235.635 81.118C236.133 80.8393 236.529 80.4287 236.823 79.886C237.116 79.3433 237.263 78.6833 237.263 77.906C237.263 76.7473 236.955 75.86 236.339 75.244C235.737 74.6133 234.997 74.298 234.117 74.298C233.237 74.298 232.496 74.6133 231.895 75.244C231.308 75.86 231.015 76.7473 231.015 77.906C231.015 79.0647 231.301 79.9593 231.873 80.59C232.459 81.206 233.193 81.514 234.073 81.514ZM249.444 71.636C250.896 71.636 252.069 72.098 252.964 73.022C253.859 73.9313 254.306 75.2073 254.306 76.85V84H251.226V77.268C251.226 76.3 250.984 75.5593 250.5 75.046C250.016 74.518 249.356 74.254 248.52 74.254C247.669 74.254 246.995 74.518 246.496 75.046C246.012 75.5593 245.77 76.3 245.77 77.268V84H242.69V71.812H245.77V73.33C246.181 72.802 246.701 72.3913 247.332 72.098C247.977 71.79 248.681 71.636 249.444 71.636ZM261.217 68.38L260.865 79.006H258.269L257.895 68.38H261.217ZM259.633 84.154C259.075 84.154 258.613 83.9853 258.247 83.648C257.895 83.296 257.719 82.8633 257.719 82.35C257.719 81.8367 257.895 81.4113 258.247 81.074C258.613 80.722 259.075 80.546 259.633 80.546C260.175 80.546 260.623 80.722 260.975 81.074C261.327 81.4113 261.503 81.8367 261.503 82.35C261.503 82.8633 261.327 83.296 260.975 83.648C260.623 83.9853 260.175 84.154 259.633 84.154Z" fill="white"/>
</svg>
